<?xml version="1.0" encoding="UTF-8"?>
<svg version="1.1" xmlns="http://www.w3.org/2000/svg" width="32" height="32">
<path d="M0 0 C10.56 0 21.12 0 32 0 C32 10.56 32 21.12 32 32 C21.44 32 10.88 32 0 32 C0 21.44 0 10.88 0 0 Z " fill="#F8F7F1" transform="translate(0,0)"/>
<path d="M0 0 C15 0 15 0 18 2 C14.535 3.485 14.535 3.485 11 5 C10.77109117 8.03304199 10.63399104 10.97504361 11 14 C12.86124923 15.98239527 12.86124923 15.98239527 15 17 C15 17.66 15 18.32 15 19 C15.66 19 16.32 19 17 19 C16.67 20.32 16.34 21.64 16 23 C13.69 22.67 11.38 22.34 9 22 C9 23.65 9 25.3 9 27 C14.28 27.33 19.56 27.66 25 28 C23.68 28.33 22.36 28.66 21 29 C21 29.66 21 30.32 21 31 C22.32 31.33 23.64 31.66 25 32 C16.75 32 8.5 32 0 32 C0 21.44 0 10.88 0 0 Z " fill="#F8F8F4" transform="translate(0,0)"/>
<path d="M0 0 C0 2.97 0 5.94 0 9 C-0.33 9 -0.66 9 -1 9 C-1.33 7.02 -1.66 5.04 -2 3 C-3.25664978 5.90600261 -4 7.79604584 -4 11 C-5.98 11.99 -5.98 11.99 -8 13 C-10.5 11.5625 -10.5 11.5625 -13 9 C-13.7344474 5.87012415 -13.74517663 3.12855904 -13 0 C-8.23240572 -4.50272793 -5.30278077 -2.65139039 0 0 Z " fill="#C1B1AE" transform="translate(23,5)"/>
<path d="M0 0 C2.5 0.125 2.5 0.125 3.5 1.125 C3.54063832 2.79117115 3.542721 4.45888095 3.5 6.125 C2.51 6.62 2.51 6.62 1.5 7.125 C1.83 8.445 2.16 9.765 2.5 11.125 C0.75 11.875 0.75 11.875 -1.5 12.125 C-3.75 10.1875 -3.75 10.1875 -5.5 8.125 C-4.18 8.455 -2.86 8.785 -1.5 9.125 C-1.17 8.135 -0.84 7.145 -0.5 6.125 C-1.49 6.125 -2.48 6.125 -3.5 6.125 C-3.542721 4.45888095 -3.54063832 2.79117115 -3.5 1.125 C-2.5 0.125 -2.5 0.125 0 0 Z " fill="#93AC87" transform="translate(16.5,5.875)"/>
<path d="M0 0 C0 2.31 0 4.62 0 7 C-0.62648438 6.9278125 -1.25296875 6.855625 -1.8984375 6.78125 C-2.71570312 6.6884375 -3.53296875 6.595625 -4.375 6.5 C-5.18710938 6.4071875 -5.99921875 6.314375 -6.8359375 6.21875 C-8.96912825 5.96647649 -8.96912825 5.96647649 -11 6 C-11 4.68 -11 3.36 -11 2 C-8.69 2.33 -6.38 2.66 -4 3 C-4 2.34 -4 1.68 -4 1 C-2 0 -2 0 0 0 Z " fill="#E0CA8E" transform="translate(20,20)"/>
<path d="M0 0 C0.33 0.66 0.66 1.32 1 2 C1.99 2 2.98 2 4 2 C4.33 1.34 4.66 0.68 5 0 C6.051875 0.4640625 6.051875 0.4640625 7.125 0.9375 C10.08936657 2.03302678 12.87698108 2.56422992 16 3 C16 3.33 16 3.66 16 4 C9.73 4 3.46 4 -3 4 C-2.01 2.68 -1.02 1.36 0 0 Z " fill="#F0ECE3" transform="translate(10,24)"/>
<path d="M0 0 C0 0.66 0 1.32 0 2 C-0.99 2.495 -0.99 2.495 -2 3 C-2.65555119 5.52733235 -2.65555119 5.52733235 -3 8 C-2.01 8 -1.02 8 0 8 C-0.33 9.32 -0.66 10.64 -1 12 C-2.32 11.34 -3.64 10.68 -5 10 C-4.88637738 8.5199159 -4.75877092 7.04089926 -4.625 5.5625 C-4.55539062 4.73878906 -4.48578125 3.91507812 -4.4140625 3.06640625 C-4.27742187 2.38449219 -4.14078125 1.70257812 -4 1 C-2 0 -2 0 0 0 Z " fill="#E2E3D6" transform="translate(16,4)"/>
<path d="M0 0 C0.66 0.33 1.32 0.66 2 1 C2 3.31 2 5.62 2 8 C0.68 8.33 -0.64 8.66 -2 9 C-2.33 7.68 -2.66 6.36 -3 5 C-2.34 5 -1.68 5 -1 5 C-0.67 3.35 -0.34 1.7 0 0 Z " fill="#E2DED7" transform="translate(20,7)"/>
<path d="M0 0 C2.31 0.33 4.62 0.66 7 1 C6.67 1.99 6.34 2.98 6 4 C4.02 4 2.04 4 0 4 C0 2.68 0 1.36 0 0 Z " fill="#9682AF" transform="translate(9,22)"/>
<path d="M0 0 C0.99 1.32 1.98 2.64 3 4 C1.02 4.99 1.02 4.99 -1 6 C-2.32 4.68 -3.64 3.36 -5 2 C-3.68 2.33 -2.36 2.66 -1 3 C-0.67 2.01 -0.34 1.02 0 0 Z " fill="#8E9888" transform="translate(16,12)"/>
</svg>
